<svg xmlns="http://www.w3.org/2000/svg" width="980" height="560" viewBox="0 0 980 560">
<rect width="100%" height="100%" fill="#ffffff"/>
<text x="490.0" y="32" text-anchor="middle" font-family="Arial" font-size="22" font-weight="700" fill="#111827">P1 max_seq_length</text>
<text x="490.0" y="58" text-anchor="middle" font-family="Arial" font-size="14" fill="#4b5563">Density Stage 1 AUPRC across input lengths; zoomed y-axis 96.5-100.5%</text>
<line x1="92" y1="92" x2="92" y2="474" stroke="#111827" stroke-width="1.4"/>
<line x1="92" y1="474" x2="936" y2="474" stroke="#111827" stroke-width="1.4"/>
<text x="28" y="283.0" text-anchor="middle" font-family="Arial" font-size="13" fill="#374151" transform="rotate(-90 28,283.0)">AUPRC (%)</text>
<line x1="86" y1="474.00" x2="936" y2="474.00" stroke="#e5e7eb" stroke-width="1"/>
<text x="80" y="478.00" text-anchor="end" font-family="Arial" font-size="12" fill="#374151">96.5</text>
<line x1="86" y1="397.60" x2="936" y2="397.60" stroke="#e5e7eb" stroke-width="1"/>
<text x="80" y="401.60" text-anchor="end" font-family="Arial" font-size="12" fill="#374151">97.3</text>
<line x1="86" y1="321.20" x2="936" y2="321.20" stroke="#e5e7eb" stroke-width="1"/>
<text x="80" y="325.20" text-anchor="end" font-family="Arial" font-size="12" fill="#374151">98.1</text>
<line x1="86" y1="244.80" x2="936" y2="244.80" stroke="#e5e7eb" stroke-width="1"/>
<text x="80" y="248.80" text-anchor="end" font-family="Arial" font-size="12" fill="#374151">98.9</text>
<line x1="86" y1="168.40" x2="936" y2="168.40" stroke="#e5e7eb" stroke-width="1"/>
<text x="80" y="172.40" text-anchor="end" font-family="Arial" font-size="12" fill="#374151">99.7</text>
<line x1="86" y1="92.00" x2="936" y2="92.00" stroke="#e5e7eb" stroke-width="1"/>
<text x="80" y="96.00" text-anchor="end" font-family="Arial" font-size="12" fill="#374151">100.5</text>
<rect x="135.40" y="312.50" width="82.00" height="161.50" fill="#2563eb" opacity="0.88" stroke="#1d4ed8" stroke-width="1"/>
<line x1="176.40" y1="246.97" x2="176.40" y2="378.02" stroke="#111827" stroke-width="1.3"/>
<line x1="169.40" y1="246.97" x2="183.40" y2="246.97" stroke="#111827" stroke-width="1.3"/>
<line x1="169.40" y1="378.02" x2="183.40" y2="378.02" stroke="#111827" stroke-width="1.3"/>
<text x="176.40" y="302.50" text-anchor="middle" font-family="Arial" font-size="12" font-weight="700" fill="#111827">98.19</text>
<text x="176.40" y="502" text-anchor="end" font-family="Arial" font-size="12" fill="#374151" transform="rotate(-28 176.40,502)">64</text>
<rect x="304.20" y="320.79" width="82.00" height="153.21" fill="#2563eb" opacity="0.88" stroke="#1d4ed8" stroke-width="1"/>
<line x1="345.20" y1="272.79" x2="345.20" y2="368.78" stroke="#111827" stroke-width="1.3"/>
<line x1="338.20" y1="272.79" x2="352.20" y2="272.79" stroke="#111827" stroke-width="1.3"/>
<line x1="338.20" y1="368.78" x2="352.20" y2="368.78" stroke="#111827" stroke-width="1.3"/>
<text x="345.20" y="310.79" text-anchor="middle" font-family="Arial" font-size="12" font-weight="700" fill="#111827">98.10</text>
<text x="345.20" y="502" text-anchor="end" font-family="Arial" font-size="12" fill="#374151" transform="rotate(-28 345.20,502)">96</text>
<rect x="473.00" y="252.35" width="82.00" height="221.65" fill="#d97706" opacity="0.88" stroke="#92400e" stroke-width="1"/>
<line x1="514.00" y1="213.21" x2="514.00" y2="291.49" stroke="#111827" stroke-width="1.3"/>
<line x1="507.00" y1="213.21" x2="521.00" y2="213.21" stroke="#111827" stroke-width="1.3"/>
<line x1="507.00" y1="291.49" x2="521.00" y2="291.49" stroke="#111827" stroke-width="1.3"/>
<text x="514.00" y="242.35" text-anchor="middle" font-family="Arial" font-size="12" font-weight="700" fill="#111827">98.82</text>
<text x="514.00" y="502" text-anchor="end" font-family="Arial" font-size="12" fill="#374151" transform="rotate(-28 514.00,502)">128 (selected)</text>
<text x="514.00" y="76" text-anchor="middle" font-family="Arial" font-size="13" font-weight="700" fill="#92400e">selected</text>
<line x1="514.00" y1="82" x2="514.00" y2="230.35" stroke="#92400e" stroke-width="1.2" stroke-dasharray="4 3"/>
<rect x="641.80" y="255.64" width="82.00" height="218.36" fill="#2563eb" opacity="0.88" stroke="#1d4ed8" stroke-width="1"/>
<line x1="682.80" y1="216.09" x2="682.80" y2="295.19" stroke="#111827" stroke-width="1.3"/>
<line x1="675.80" y1="216.09" x2="689.80" y2="216.09" stroke="#111827" stroke-width="1.3"/>
<line x1="675.80" y1="295.19" x2="689.80" y2="295.19" stroke="#111827" stroke-width="1.3"/>
<text x="682.80" y="245.64" text-anchor="middle" font-family="Arial" font-size="12" font-weight="700" fill="#111827">98.79</text>
<text x="682.80" y="502" text-anchor="end" font-family="Arial" font-size="12" fill="#374151" transform="rotate(-28 682.80,502)">160</text>
<rect x="810.60" y="254.44" width="82.00" height="219.56" fill="#2563eb" opacity="0.88" stroke="#1d4ed8" stroke-width="1"/>
<line x1="851.60" y1="205.81" x2="851.60" y2="303.06" stroke="#111827" stroke-width="1.3"/>
<line x1="844.60" y1="205.81" x2="858.60" y2="205.81" stroke="#111827" stroke-width="1.3"/>
<line x1="844.60" y1="303.06" x2="858.60" y2="303.06" stroke="#111827" stroke-width="1.3"/>
<text x="851.60" y="244.44" text-anchor="middle" font-family="Arial" font-size="12" font-weight="700" fill="#111827">98.80</text>
<text x="851.60" y="502" text-anchor="end" font-family="Arial" font-size="12" fill="#374151" transform="rotate(-28 851.60,502)">192</text>
</svg>
