<svg xmlns="http://www.w3.org/2000/svg" width="980" height="560" viewBox="0 0 980 560">
<rect width="100%" height="100%" fill="#ffffff"/>
<text x="490.0" y="32" text-anchor="middle" font-family="Arial" font-size="22" font-weight="700" fill="#111827">P1 max_seq_length</text>
<text x="490.0" y="58" text-anchor="middle" font-family="Arial" font-size="14" fill="#4b5563">Density Stage 2 Macro-F1 across input lengths; zoomed y-axis 87.0-93.5%</text>
<line x1="92" y1="92" x2="92" y2="474" stroke="#111827" stroke-width="1.4"/>
<line x1="92" y1="474" x2="936" y2="474" stroke="#111827" stroke-width="1.4"/>
<text x="28" y="283.0" text-anchor="middle" font-family="Arial" font-size="13" fill="#374151" transform="rotate(-90 28,283.0)">Macro-F1 (%)</text>
<line x1="86" y1="474.00" x2="936" y2="474.00" stroke="#e5e7eb" stroke-width="1"/>
<text x="80" y="478.00" text-anchor="end" font-family="Arial" font-size="12" fill="#374151">87.0</text>
<line x1="86" y1="397.60" x2="936" y2="397.60" stroke="#e5e7eb" stroke-width="1"/>
<text x="80" y="401.60" text-anchor="end" font-family="Arial" font-size="12" fill="#374151">88.3</text>
<line x1="86" y1="321.20" x2="936" y2="321.20" stroke="#e5e7eb" stroke-width="1"/>
<text x="80" y="325.20" text-anchor="end" font-family="Arial" font-size="12" fill="#374151">89.6</text>
<line x1="86" y1="244.80" x2="936" y2="244.80" stroke="#e5e7eb" stroke-width="1"/>
<text x="80" y="248.80" text-anchor="end" font-family="Arial" font-size="12" fill="#374151">90.9</text>
<line x1="86" y1="168.40" x2="936" y2="168.40" stroke="#e5e7eb" stroke-width="1"/>
<text x="80" y="172.40" text-anchor="end" font-family="Arial" font-size="12" fill="#374151">92.2</text>
<line x1="86" y1="92.00" x2="936" y2="92.00" stroke="#e5e7eb" stroke-width="1"/>
<text x="80" y="96.00" text-anchor="end" font-family="Arial" font-size="12" fill="#374151">93.5</text>
<rect x="135.40" y="318.63" width="82.00" height="155.37" fill="#2563eb" opacity="0.88" stroke="#1d4ed8" stroke-width="1"/>
<line x1="176.40" y1="249.22" x2="176.40" y2="388.04" stroke="#111827" stroke-width="1.3"/>
<line x1="169.40" y1="249.22" x2="183.40" y2="249.22" stroke="#111827" stroke-width="1.3"/>
<line x1="169.40" y1="388.04" x2="183.40" y2="388.04" stroke="#111827" stroke-width="1.3"/>
<text x="176.40" y="308.63" text-anchor="middle" font-family="Arial" font-size="12" font-weight="700" fill="#111827">89.64</text>
<text x="176.40" y="502" text-anchor="end" font-family="Arial" font-size="12" fill="#374151" transform="rotate(-28 176.40,502)">64</text>
<rect x="304.20" y="245.37" width="82.00" height="228.63" fill="#2563eb" opacity="0.88" stroke="#1d4ed8" stroke-width="1"/>
<line x1="345.20" y1="211.60" x2="345.20" y2="279.13" stroke="#111827" stroke-width="1.3"/>
<line x1="338.20" y1="211.60" x2="352.20" y2="211.60" stroke="#111827" stroke-width="1.3"/>
<line x1="338.20" y1="279.13" x2="352.20" y2="279.13" stroke="#111827" stroke-width="1.3"/>
<text x="345.20" y="235.37" text-anchor="middle" font-family="Arial" font-size="12" font-weight="700" fill="#111827">90.89</text>
<text x="345.20" y="502" text-anchor="end" font-family="Arial" font-size="12" fill="#374151" transform="rotate(-28 345.20,502)">96</text>
<rect x="473.00" y="235.76" width="82.00" height="238.24" fill="#d97706" opacity="0.88" stroke="#92400e" stroke-width="1"/>
<line x1="514.00" y1="203.98" x2="514.00" y2="267.53" stroke="#111827" stroke-width="1.3"/>
<line x1="507.00" y1="203.98" x2="521.00" y2="203.98" stroke="#111827" stroke-width="1.3"/>
<line x1="507.00" y1="267.53" x2="521.00" y2="267.53" stroke="#111827" stroke-width="1.3"/>
<text x="514.00" y="225.76" text-anchor="middle" font-family="Arial" font-size="12" font-weight="700" fill="#111827">91.05</text>
<text x="514.00" y="502" text-anchor="end" font-family="Arial" font-size="12" fill="#374151" transform="rotate(-28 514.00,502)">128 (selected)</text>
<text x="514.00" y="76" text-anchor="middle" font-family="Arial" font-size="13" font-weight="700" fill="#92400e">selected</text>
<line x1="514.00" y1="82" x2="514.00" y2="213.76" stroke="#92400e" stroke-width="1.2" stroke-dasharray="4 3"/>
<rect x="641.80" y="228.91" width="82.00" height="245.09" fill="#2563eb" opacity="0.88" stroke="#1d4ed8" stroke-width="1"/>
<line x1="682.80" y1="206.43" x2="682.80" y2="251.39" stroke="#111827" stroke-width="1.3"/>
<line x1="675.80" y1="206.43" x2="689.80" y2="206.43" stroke="#111827" stroke-width="1.3"/>
<line x1="675.80" y1="251.39" x2="689.80" y2="251.39" stroke="#111827" stroke-width="1.3"/>
<text x="682.80" y="218.91" text-anchor="middle" font-family="Arial" font-size="12" font-weight="700" fill="#111827">91.17</text>
<text x="682.80" y="502" text-anchor="end" font-family="Arial" font-size="12" fill="#374151" transform="rotate(-28 682.80,502)">160</text>
<rect x="810.60" y="198.03" width="82.00" height="275.97" fill="#2563eb" opacity="0.88" stroke="#1d4ed8" stroke-width="1"/>
<line x1="851.60" y1="169.00" x2="851.60" y2="227.06" stroke="#111827" stroke-width="1.3"/>
<line x1="844.60" y1="169.00" x2="858.60" y2="169.00" stroke="#111827" stroke-width="1.3"/>
<line x1="844.60" y1="227.06" x2="858.60" y2="227.06" stroke="#111827" stroke-width="1.3"/>
<text x="851.60" y="188.03" text-anchor="middle" font-family="Arial" font-size="12" font-weight="700" fill="#111827">91.70</text>
<text x="851.60" y="502" text-anchor="end" font-family="Arial" font-size="12" fill="#374151" transform="rotate(-28 851.60,502)">192</text>
</svg>
