<svg xmlns="http://www.w3.org/2000/svg" width="980" height="560" viewBox="0 0 980 560">
<rect width="100%" height="100%" fill="#ffffff"/>
<text x="490.0" y="32" text-anchor="middle" font-family="Arial" font-size="22" font-weight="700" fill="#111827">P1 max_seq_length final check</text>
<text x="490.0" y="58" text-anchor="middle" font-family="Arial" font-size="14" fill="#4b5563">Density Stage 2 Macro-F1 under selected G3 gate</text>
<line x1="92" y1="92" x2="92" y2="442" stroke="#111827" stroke-width="1.4"/>
<line x1="92" y1="442" x2="936" y2="442" stroke="#111827" stroke-width="1.4"/>
<text x="28" y="267.0" text-anchor="middle" font-family="Arial" font-size="13" fill="#374151" transform="rotate(-90 28,267.0)">Macro-F1 (%)</text>
<text x="92" y="532" text-anchor="start" font-family="Arial" font-size="12" fill="#6b7280">Zoomed y-axis: 96.3-97.4%, not zero-based.</text>
<text x="936" y="532" text-anchor="end" font-family="Arial" font-size="12" fill="#6b7280">128 chosen for comparable accuracy with shorter input.</text>
<line x1="86" y1="442.00" x2="936" y2="442.00" stroke="#e5e7eb" stroke-width="1"/>
<text x="80" y="446.00" text-anchor="end" font-family="Arial" font-size="12" fill="#374151">96.3</text>
<line x1="86" y1="372.00" x2="936" y2="372.00" stroke="#e5e7eb" stroke-width="1"/>
<text x="80" y="376.00" text-anchor="end" font-family="Arial" font-size="12" fill="#374151">96.5</text>
<line x1="86" y1="302.00" x2="936" y2="302.00" stroke="#e5e7eb" stroke-width="1"/>
<text x="80" y="306.00" text-anchor="end" font-family="Arial" font-size="12" fill="#374151">96.7</text>
<line x1="86" y1="232.00" x2="936" y2="232.00" stroke="#e5e7eb" stroke-width="1"/>
<text x="80" y="236.00" text-anchor="end" font-family="Arial" font-size="12" fill="#374151">97.0</text>
<line x1="86" y1="162.00" x2="936" y2="162.00" stroke="#e5e7eb" stroke-width="1"/>
<text x="80" y="166.00" text-anchor="end" font-family="Arial" font-size="12" fill="#374151">97.2</text>
<line x1="86" y1="92.00" x2="936" y2="92.00" stroke="#e5e7eb" stroke-width="1"/>
<text x="80" y="96.00" text-anchor="end" font-family="Arial" font-size="12" fill="#374151">97.4</text>
<rect x="262.00" y="254.96" width="82.00" height="187.04" fill="#d97706" opacity="0.88" stroke="#92400e" stroke-width="1"/>
<line x1="303.00" y1="152.16" x2="303.00" y2="357.76" stroke="#111827" stroke-width="1.3"/>
<line x1="296.00" y1="152.16" x2="310.00" y2="152.16" stroke="#111827" stroke-width="1.3"/>
<line x1="296.00" y1="357.76" x2="310.00" y2="357.76" stroke="#111827" stroke-width="1.3"/>
<text x="303.00" y="244.96" text-anchor="middle" font-family="Arial" font-size="12" font-weight="700" fill="#111827">96.89</text>
<text x="303.00" y="470" text-anchor="end" font-family="Arial" font-size="12" fill="#374151" transform="rotate(-28 303.00,470)">128 (selected)</text>
<text x="303.00" y="76" text-anchor="middle" font-family="Arial" font-size="13" font-weight="700" fill="#92400e">selected</text>
<line x1="303.00" y1="82" x2="303.00" y2="232.96" stroke="#92400e" stroke-width="1.2" stroke-dasharray="4 3"/>
<rect x="684.00" y="313.74" width="82.00" height="128.26" fill="#2563eb" opacity="0.88" stroke="#1d4ed8" stroke-width="1"/>
<line x1="725.00" y1="234.61" x2="725.00" y2="392.86" stroke="#111827" stroke-width="1.3"/>
<line x1="718.00" y1="234.61" x2="732.00" y2="234.61" stroke="#111827" stroke-width="1.3"/>
<line x1="718.00" y1="392.86" x2="732.00" y2="392.86" stroke="#111827" stroke-width="1.3"/>
<text x="725.00" y="303.74" text-anchor="middle" font-family="Arial" font-size="12" font-weight="700" fill="#111827">96.70</text>
<text x="725.00" y="470" text-anchor="end" font-family="Arial" font-size="12" fill="#374151" transform="rotate(-28 725.00,470)">192</text>
</svg>
