<svg xmlns="http://www.w3.org/2000/svg" width="980" height="560" viewBox="0 0 980 560">
<rect width="100%" height="100%" fill="#ffffff"/>
<text x="490.0" y="32" text-anchor="middle" font-family="Arial" font-size="22" font-weight="700" fill="#111827">P2 quality gate</text>
<text x="490.0" y="58" text-anchor="middle" font-family="Arial" font-size="14" fill="#4b5563">Density Stage 2 Macro-F1 across weak-label filters; zoomed y-axis 86.0-98.5%</text>
<line x1="92" y1="92" x2="92" y2="474" stroke="#111827" stroke-width="1.4"/>
<line x1="92" y1="474" x2="936" y2="474" stroke="#111827" stroke-width="1.4"/>
<text x="28" y="283.0" text-anchor="middle" font-family="Arial" font-size="13" fill="#374151" transform="rotate(-90 28,283.0)">Macro-F1 (%)</text>
<line x1="86" y1="474.00" x2="936" y2="474.00" stroke="#e5e7eb" stroke-width="1"/>
<text x="80" y="478.00" text-anchor="end" font-family="Arial" font-size="12" fill="#374151">86.0</text>
<line x1="86" y1="397.60" x2="936" y2="397.60" stroke="#e5e7eb" stroke-width="1"/>
<text x="80" y="401.60" text-anchor="end" font-family="Arial" font-size="12" fill="#374151">88.5</text>
<line x1="86" y1="321.20" x2="936" y2="321.20" stroke="#e5e7eb" stroke-width="1"/>
<text x="80" y="325.20" text-anchor="end" font-family="Arial" font-size="12" fill="#374151">91.0</text>
<line x1="86" y1="244.80" x2="936" y2="244.80" stroke="#e5e7eb" stroke-width="1"/>
<text x="80" y="248.80" text-anchor="end" font-family="Arial" font-size="12" fill="#374151">93.5</text>
<line x1="86" y1="168.40" x2="936" y2="168.40" stroke="#e5e7eb" stroke-width="1"/>
<text x="80" y="172.40" text-anchor="end" font-family="Arial" font-size="12" fill="#374151">96.0</text>
<line x1="86" y1="92.00" x2="936" y2="92.00" stroke="#e5e7eb" stroke-width="1"/>
<text x="80" y="96.00" text-anchor="end" font-family="Arial" font-size="12" fill="#374151">98.5</text>
<rect x="135.40" y="211.72" width="82.00" height="262.28" fill="#2563eb" opacity="0.88" stroke="#1d4ed8" stroke-width="1"/>
<line x1="176.40" y1="200.45" x2="176.40" y2="222.98" stroke="#111827" stroke-width="1.3"/>
<line x1="169.40" y1="200.45" x2="183.40" y2="200.45" stroke="#111827" stroke-width="1.3"/>
<line x1="169.40" y1="222.98" x2="183.40" y2="222.98" stroke="#111827" stroke-width="1.3"/>
<text x="176.40" y="201.72" text-anchor="middle" font-family="Arial" font-size="12" font-weight="700" fill="#111827">94.58</text>
<text x="176.40" y="502" text-anchor="end" font-family="Arial" font-size="12" fill="#374151" transform="rotate(-28 176.40,502)">G1</text>
<rect x="304.20" y="319.55" width="82.00" height="154.45" fill="#2563eb" opacity="0.88" stroke="#1d4ed8" stroke-width="1"/>
<line x1="345.20" y1="303.03" x2="345.20" y2="336.08" stroke="#111827" stroke-width="1.3"/>
<line x1="338.20" y1="303.03" x2="352.20" y2="303.03" stroke="#111827" stroke-width="1.3"/>
<line x1="338.20" y1="336.08" x2="352.20" y2="336.08" stroke="#111827" stroke-width="1.3"/>
<text x="345.20" y="309.55" text-anchor="middle" font-family="Arial" font-size="12" font-weight="700" fill="#111827">91.05</text>
<text x="345.20" y="502" text-anchor="end" font-family="Arial" font-size="12" fill="#374151" transform="rotate(-28 345.20,502)">G2</text>
<rect x="473.00" y="143.01" width="82.00" height="330.99" fill="#d97706" opacity="0.88" stroke="#92400e" stroke-width="1"/>
<line x1="514.00" y1="137.46" x2="514.00" y2="148.56" stroke="#111827" stroke-width="1.3"/>
<line x1="507.00" y1="137.46" x2="521.00" y2="137.46" stroke="#111827" stroke-width="1.3"/>
<line x1="507.00" y1="148.56" x2="521.00" y2="148.56" stroke="#111827" stroke-width="1.3"/>
<text x="514.00" y="133.01" text-anchor="middle" font-family="Arial" font-size="12" font-weight="700" fill="#111827">96.83</text>
<text x="514.00" y="502" text-anchor="end" font-family="Arial" font-size="12" fill="#374151" transform="rotate(-28 514.00,502)">G3 (selected)</text>
<text x="514.00" y="76" text-anchor="middle" font-family="Arial" font-size="13" font-weight="700" fill="#92400e">selected</text>
<line x1="514.00" y1="82" x2="514.00" y2="121.01" stroke="#92400e" stroke-width="1.2" stroke-dasharray="4 3"/>
<rect x="641.80" y="311.40" width="82.00" height="162.60" fill="#2563eb" opacity="0.88" stroke="#1d4ed8" stroke-width="1"/>
<line x1="682.80" y1="286.71" x2="682.80" y2="336.09" stroke="#111827" stroke-width="1.3"/>
<line x1="675.80" y1="286.71" x2="689.80" y2="286.71" stroke="#111827" stroke-width="1.3"/>
<line x1="675.80" y1="336.09" x2="689.80" y2="336.09" stroke="#111827" stroke-width="1.3"/>
<text x="682.80" y="301.40" text-anchor="middle" font-family="Arial" font-size="12" font-weight="700" fill="#111827">91.32</text>
<text x="682.80" y="502" text-anchor="end" font-family="Arial" font-size="12" fill="#374151" transform="rotate(-28 682.80,502)">G4</text>
<rect x="810.60" y="393.97" width="82.00" height="80.03" fill="#2563eb" opacity="0.88" stroke="#1d4ed8" stroke-width="1"/>
<line x1="851.60" y1="356.59" x2="851.60" y2="431.35" stroke="#111827" stroke-width="1.3"/>
<line x1="844.60" y1="356.59" x2="858.60" y2="356.59" stroke="#111827" stroke-width="1.3"/>
<line x1="844.60" y1="431.35" x2="858.60" y2="431.35" stroke="#111827" stroke-width="1.3"/>
<text x="851.60" y="383.97" text-anchor="middle" font-family="Arial" font-size="12" font-weight="700" fill="#111827">88.62</text>
<text x="851.60" y="502" text-anchor="end" font-family="Arial" font-size="12" fill="#374151" transform="rotate(-28 851.60,502)">G5</text>
</svg>
